<?xml version="1.0" encoding="UTF-8" standalone="no"?>
<!-- Created with Inkscape (http://www.inkscape.org/) -->

<svg
   version="1.1"
   id="svg148"
   width="256"
   height="256"
   viewBox="0 0 256 256"
   xmlns="http://www.w3.org/2000/svg"
   xmlns:svg="http://www.w3.org/2000/svg">
  <defs
     id="defs152" />
  <g
     id="layer1"
     transform="translate(-532)">
    <rect
       style="opacity:1;fill:#ffffff;stroke:none;stop-color:#000000"
       id="rect786"
       width="105.45318"
       height="81.425613"
       x="607.27338"
       y="105.00697" />
    <g
       id="g4035">
      <path
         d="m 564.22786,31.52795 v 192.9441 h 13.88171 v 4.62724 H 558.90071 V 26.900713 h 19.20886 v 4.627237 z"
         id="path1729"
         style="stroke-width:1" />
      <path
         d="M 755.77213,224.47205 V 31.52795 h -13.88171 v -4.627237 h 19.20886 V 229.09929 h -19.20886 v -4.62724 z"
         id="path1731"
         style="stroke-width:1" />
    </g>
    <path
       style="fill:none;stroke:#000000;stroke-width:5.81852;stroke-dasharray:none;stroke-opacity:1;stop-color:#000000"
       d="M 668.14775,104.91404 V 66.123928"
       id="path1727" />
    <path
       id="circle1735"
       style="stroke-width:2.90924;stop-color:#000000"
       d="m 675.8029,66.196134 a 7.655128,7.655128 0 0 1 -7.65513,7.655128 7.655128,7.655128 0 0 1 -7.65512,-7.655128 7.655128,7.655128 0 0 1 7.65512,-7.655128 7.655128,7.655128 0 0 1 7.65513,7.655128 z" />
    <path
       id="circle1739"
       style="stroke-width:2.90924;stop-color:#000000"
       d="m 651.97776,135.5677 a 7.655128,7.655128 0 0 1 -7.65513,7.65512 7.655128,7.655128 0 0 1 -7.65513,-7.65512 7.655128,7.655128 0 0 1 7.65513,-7.65513 7.655128,7.655128 0 0 1 7.65513,7.65513 z" />
    <path
       id="circle1741"
       style="stroke-width:2.90924;stop-color:#000000"
       d="m 687.96775,135.5677 a 7.655128,7.655128 0 0 1 -7.65512,7.65512 7.655128,7.655128 0 0 1 -7.65513,-7.65512 7.655128,7.655128 0 0 1 7.65513,-7.65513 7.655128,7.655128 0 0 1 7.65512,7.65513 z" />
    <g
       id="g790">
      <path
         id="path1745"
         style="color:#000000;fill:#000000;-inkscape-stroke:none"
         d="m 597.44826,113.69337 v 62.63281 c 0,11.59269 9.54206,21.13281 21.13477,21.13281 h 82.83593 c 11.5927,0 21.13281,-9.54012 21.13281,-21.13281 l -2e-5,-57.41744 -0.30762,-5.12963 -12.99314,-0.0857 v 62.63281 c 0,4.45455 -3.37748,7.83398 -7.83203,7.83398 h -82.83594 c -4.45455,0 -7.83398,-3.37943 -7.83398,-7.83398 v -62.63281 z" />
      <path
         id="path1759"
         style="fill:#000000;stroke-width:0.999997"
         d="m 643.99588,91.207248 c -5.38798,0 -10.20075,1.091458 -14.35215,3.31866 -4.15139,2.18518 -7.72937,5.296826 -10.68834,9.330992 h -0.30935 V 93.30745 h -21.19782 v 25.49925 h 23.4222 c 0.22178,-0.7183 0.47827,-1.39206 0.77862,-2.00762 1.14827,-2.35326 2.56216,-4.16031 4.19622,-5.42098 1.63405,-1.26069 3.35558,-2.10092 5.07796,-2.56318 1.72239,-0.46224 3.13629,-0.67341 4.19621,-0.67341 3.62143,0 6.31658,0.58891 8.17146,1.72351 1.85489,1.13461 3.17821,2.6903 3.97315,4.58133 0.5668,1.37824 0.96853,2.82347 1.18899,4.36035 h 23.79677 c 0.41223,-1.62394 1.02098,-3.10237 1.82243,-4.44454 1.1041,-1.89102 2.65073,-3.36259 4.59395,-4.53923 1.9432,-1.13461 4.50345,-1.72352 7.68323,-1.72352 3.13563,0 5.6537,0.50455 7.50857,1.51308 1.85488,1.00855 3.22461,2.35333 4.19621,4.07626 0.80408,1.45731 1.32432,3.18264 1.59725,5.11795 h 22.9003 c -0.0306,-4.90696 -0.76784,-9.09946 -2.19491,-12.59705 -1.50157,-3.57193 -3.53507,-6.430375 -6.18489,-8.65758 -2.64982,-2.227201 -5.78539,-3.823203 -9.49514,-4.831751 -3.70975,-1.008538 -7.72817,-1.51307 -12.05622,-1.51307 -5.69712,0 -10.64267,1.302501 -14.79407,3.907903 -4.15139,2.605401 -7.46386,5.630438 -9.89287,9.034268 -2.25234,-4.790571 -5.47641,-8.193352 -9.76029,-10.084374 -4.2839,-1.891022 -9.01032,-2.857797 -14.17747,-2.857798 z" />
    </g>
    <path
       id="path1871"
       style="fill:#000000;stroke-width:1"
       d="m 645.64332,158.97303 c 0.27481,1.81456 0.71195,3.46591 1.3164,4.94727 1.12544,2.67731 2.64666,4.82083 4.63282,6.49023 1.98615,1.66939 4.33655,2.86516 7.11718,3.62109 2.78063,0.75598 5.79306,1.13477 9.03711,1.13477 4.27028,0 7.97816,-0.97679 11.08985,-2.92969 1.4795,-0.92852 2.81233,-1.9305 4.0039,-2.99804 v -10.26563 h -2.00195 c -0.72079,0.87802 -1.60013,1.61417 -2.63086,2.23828 -1.45651,0.85044 -3.37638,1.29297 -5.75977,1.29297 -2.35032,0 -4.23663,-0.3788 -5.62695,-1.13477 -1.14344,-0.62169 -2.03699,-1.41652 -2.72461,-2.39648 z" />
  </g>
</svg>
